<?xml version="1.0" ?><svg data-name="025_SCIENCE" id="_025_SCIENCE" viewBox="0 0 24 24" xmlns="http://www.w3.org/2000/svg"><defs><style>.cls-1{fill:#333;}</style></defs><path class="cls-1" d="M10,12H7a1,1,0,0,1-1-1V3A1,1,0,0,1,7,2h3a1,1,0,0,1,0,2H8v6h2a1,1,0,0,1,0,2Z"/><path class="cls-1" d="M9,8H7A1,1,0,0,1,7,6H9A1,1,0,0,1,9,8Z"/><path class="cls-1" d="M12,22a1,1,0,0,1-1-1V17a1,1,0,0,0-1-1H5v5a1,1,0,0,1-2,0V15a1,1,0,0,1,1-1h6a3,3,0,0,1,3,3v4A1,1,0,0,1,12,22Z"/><path class="cls-1" d="M8,22a1,1,0,0,1-1-1V15a1,1,0,0,1,2,0v6A1,1,0,0,1,8,22Z"/><path class="cls-1" d="M18,22H17a3,3,0,0,1-3-3V17a3,3,0,0,1,3-3h1a1,1,0,0,1,0,2H17a1,1,0,0,0-1,1v2a1,1,0,0,0,1,1h1a1,1,0,0,1,0,2Z"/><path class="cls-1" d="M21,16a1,1,0,0,1-1-1V14a1,1,0,0,1,2,0v1A1,1,0,0,1,21,16Z"/><path class="cls-1" d="M17,6H13a1,1,0,0,1,0-2h4a1,1,0,0,1,0,2Z"/><path class="cls-1" d="M17,10H13a1,1,0,0,1,0-2h4a1,1,0,0,1,0,2Z"/></svg>